<?xml version="1.0" encoding="UTF-8"?>
<svg version="1.1" xmlns="http://www.w3.org/2000/svg" width="1268" height="880">
<path d="M0 0 C418.44 0 836.88 0 1268 0 C1268 290.4 1268 580.8 1268 880 C849.56 880 431.12 880 0 880 C0 589.6 0 299.2 0 0 Z " fill="#FEFEFE" transform="translate(0,0)"/>
<path d="M0 0 C418.44 0 836.88 0 1268 0 C1268 290.4 1268 580.8 1268 880 C849.56 880 431.12 880 0 880 C0 589.6 0 299.2 0 0 Z M325 62 C324.21463867 62.22010742 323.42927734 62.44021484 322.62011719 62.66699219 C295.10373358 70.66425487 269.11399486 86.60284805 247.7734375 105.55859375 C245.22993539 107.79759209 242.61620262 109.86459628 239.9375 111.9375 C227.92156839 121.72367111 216.50276385 133.19988126 206.9921875 145.44140625 C205.05444025 147.93008164 203.040071 150.32449713 200.98583984 152.71655273 C183.90600333 172.61763841 169.02666184 194.25411384 156 217 C155.44070801 217.97195312 154.88141602 218.94390625 154.30517578 219.9453125 C143.38997515 238.97540021 133.11644679 258.20255604 124.8515625 278.54296875 C123.51859675 281.81512778 122.07594908 285.0190733 120.5859375 288.22265625 C117.7343802 294.44969179 115.34934197 300.81959869 113 307.25 C112.55994629 308.44802246 112.11989258 309.64604492 111.66650391 310.88037109 C108.86844948 318.53268109 106.13903319 326.1908244 103.66455078 333.95458984 C102.89323498 336.32861034 102.08469923 338.68877682 101.27734375 341.05078125 C94.65527225 360.72015063 89.77886518 380.8187492 85 401 C84.69819824 402.27246582 84.39639648 403.54493164 84.08544922 404.85595703 C76.85774142 435.8062683 72.11129445 467.49972368 68 499 C67.8664209 500.01143066 67.7328418 501.02286133 67.59521484 502.06494141 C66.75932437 508.49954588 66.02872816 514.93969305 65.37207031 521.39501953 C65.12132873 523.82444876 64.85737431 526.25254614 64.58105469 528.67919922 C61.87896756 552.90954029 61.70357019 577.1437172 61.68947983 601.49565125 C61.68751992 604.09854975 61.68239821 606.70142811 61.6769104 609.30432129 C61.64884078 627.29645348 61.68736759 645.12637251 64 663 C64.15122314 664.2979248 64.30244629 665.59584961 64.45825195 666.93310547 C69.88779133 712.39296457 81.04313794 762.76425459 117.9609375 793.453125 C137.37234299 808.17901882 159.94746628 812.41824551 183.83105469 809.67480469 C189.96583828 808.78100956 195.98620554 807.49715803 202 806 C202.67482422 805.8340332 203.34964844 805.66806641 204.04492188 805.49707031 C241.78426416 795.82081111 277.30568512 773.24224752 305.77734375 747.0390625 C307.79562103 745.18749705 309.85349135 743.40167 311.9375 741.625 C319.11294873 735.36463886 325.81181275 728.53326285 331.9921875 721.29296875 C335.279319 717.53898783 338.7054315 713.91339438 342.11865234 710.27416992 C344.93873603 707.25744628 347.70656005 704.20825853 350.4140625 701.08984375 C354.13277859 696.81651007 357.98565984 692.680432 361.875 688.5625 C362.57681396 687.81750244 363.27862793 687.07250488 364.00170898 686.30493164 C368.3028559 681.75314557 372.6748255 677.289202 377.13671875 672.89453125 C378.96832558 671.03220565 380.67703342 669.10927477 382.375 667.125 C388.63718153 659.84575883 395.54905219 653.07963415 402.86328125 646.86328125 C405.00259429 644.99773771 407.05942686 643.05776922 409.1184082 641.10449219 C445.15160719 607.21424962 497.61578855 605.81245741 544.65869141 603.24951172 C546.97937997 603.07621465 549.29514581 602.82705711 551.6018219 602.51904297 C556.29702865 601.92464866 560.98611294 601.6598126 565.7121582 601.44580078 C566.62641477 601.40369036 567.54067133 601.36157993 568.48263264 601.31819344 C578.19084574 600.90265485 587.88991546 600.854643 597.60546875 600.8671875 C599.50857048 600.86651014 601.41167212 600.86553657 603.31477356 600.86428833 C607.2701603 600.86282983 611.22552417 600.86490424 615.1809082 600.86962891 C620.16825681 600.87530626 625.15555182 600.87195444 630.14289856 600.866189 C650.78630294 600.8459142 671.3788759 600.93900316 692 602 C693.50442884 602.06938756 695.00890241 602.13781516 696.51342773 602.20507812 C727.66918321 603.6316535 759.41230738 605.68623854 790 612 C790.87978516 612.18143555 791.75957031 612.36287109 792.66601562 612.54980469 C821.1806719 618.62721309 842.23630979 633.29420245 862.14453125 654.26953125 C863.82090694 656.22734798 863.82090694 656.22734798 866 656 C866.33 656.99 866.66 657.98 867 659 C868.41510048 660.1792504 869.83430435 661.35399632 871.27587891 662.50073242 C873.1197797 664.10415848 874.6351148 665.80917894 876.2109375 667.67578125 C879.94212043 671.99762808 883.92569075 676.00374265 888 680 C892.62045934 684.5319448 897.06068802 689.12665197 901.28515625 694.03125 C904.10415783 697.26764362 907.05553465 700.37807804 910 703.5 C913.5591965 707.27370164 917.08066848 711.06525283 920.484375 714.98046875 C932.92698491 729.29224442 946.02784463 743.32584131 961 755 C961.91628174 755.72292236 961.91628174 755.72292236 962.85107422 756.46044922 C999.61456659 785.4253515 1047.20823321 814.82491723 1096 810 C1114.08720493 807.58427475 1131.49377872 801.61543664 1145 789 C1145.75410156 788.32453125 1146.50820312 787.6490625 1147.28515625 786.953125 C1153.59414293 781.02289395 1158.32775309 774.22558109 1163 767 C1163.54527344 766.16597656 1164.09054687 765.33195313 1164.65234375 764.47265625 C1170.98615205 754.37552419 1175.87382065 743.5696704 1179.078125 732.09765625 C1180 729 1180 729 1181.453125 725.27734375 C1183.2902038 720.45872953 1184.39843314 715.52969618 1185.5 710.5 C1185.82363525 709.04207031 1185.82363525 709.04207031 1186.15380859 707.5546875 C1193.33803288 674.87266495 1196.40867838 642.28800942 1196.31765366 608.83613586 C1196.31241629 606.77962944 1196.31049989 604.72313824 1196.30899048 602.66662598 C1196.27854852 578.75530324 1195.35775824 554.98137453 1193.19598389 531.16223145 C1193.01748744 529.19293373 1192.84647166 527.22296159 1192.67626953 525.25292969 C1188.25916576 475.42451763 1178.85537019 425.57548257 1166.875 377.0625 C1166.71082581 376.39313416 1166.54665161 375.72376831 1166.37750244 375.03411865 C1164.51008577 367.44751872 1162.43550526 360.01362825 1159.89306641 352.62524414 C1158.71930818 349.17488269 1157.73474353 345.69656743 1156.75 342.1875 C1146.46640117 306.763081 1131.88931201 271.76084297 1114.28417969 239.36523438 C1112.97383766 236.95181355 1111.67807737 234.53091541 1110.3828125 232.109375 C1098.27570476 209.62695527 1084.52149309 188.27241968 1069 168 C1068.1777815 166.90800655 1067.35618497 165.81554454 1066.53515625 164.72265625 C1061.33875982 157.8402911 1055.84085657 151.34779884 1050 145 C1048.89140179 143.73303062 1047.7870447 142.46233444 1046.6875 141.1875 C1036.31224083 129.27275501 1036.31224083 129.27275501 1024.76953125 118.5234375 C1023.01995079 117.01717618 1021.46077159 115.42627468 1019.875 113.75 C1014.43911294 108.24032262 1008.1497818 103.67339299 1002 99 C1001.07791748 98.29472168 1001.07791748 98.29472168 1000.13720703 97.57519531 C991.12269146 90.70676663 981.86044777 84.58319086 972 79 C971.39720215 78.65340332 970.7944043 78.30680664 970.17333984 77.94970703 C957.05167921 70.44607676 942.83113236 64.16955651 928 61 C926.7728125 60.72285156 925.545625 60.44570313 924.28125 60.16015625 C905.98965065 56.38433789 886.33590177 56.62899999 868 60 C866.47292459 60.23740959 864.94555903 60.47295742 863.41796875 60.70703125 C840.74113662 64.39182306 819.25904812 72.44377226 798.375 81.8125 C796.82299573 82.50668721 795.27091 83.20069232 793.71875 83.89453125 C792.54892578 84.41781006 792.54892578 84.41781006 791.35546875 84.95166016 C789.04298303 85.9808697 786.72565766 86.9982169 784.40625 88.01171875 C777.32443912 91.11415381 770.3199811 94.28787057 763.4375 97.8125 C753.4984596 102.88538013 743.25340482 107.27533563 733.01220703 111.69677734 C730.28341103 112.87738304 727.56104606 114.07156132 724.83984375 115.26953125 C685.37292051 132.49373337 638.83980332 141.89475036 596 134 C595.09233887 133.83338867 594.18467773 133.66677734 593.24951172 133.49511719 C574.53383111 129.97166439 556.67715693 125.10829416 539 118 C538.14519043 117.6582373 537.29038086 117.31647461 536.40966797 116.96435547 C521.65425754 111.0141348 507.2842742 104.36410872 492.9375 97.5 C478.07331718 90.39044961 463.22502474 83.31474519 448 77 C447.04416016 76.60135742 446.08832031 76.20271484 445.10351562 75.79199219 C408.39677646 60.69111848 364.09771221 50.8222112 325 62 Z " fill="#000000" transform="translate(0,0)"/>
<path d="M0 0 C0.93827637 0.31420898 1.87655273 0.62841797 2.84326172 0.95214844 C43.75653105 14.87060957 86.71358786 40.6196937 107.0625 80.3125 C109.4902977 85.43785069 111.64012415 90.23888261 111 96 C109.6413449 99.66836877 108.09075933 102.55314886 105 105 C101.2350613 106.25497957 98.96991382 106.52064444 95 106 C88.8335022 102.42786385 84.73978245 96.25338146 80.49365234 90.69018555 C75.28007721 83.92107597 69.4672494 77.76347103 63.54394531 71.61572266 C62.2556422 70.26752689 60.99527022 68.8927113 59.7421875 67.51171875 C41.89174644 48.36624569 16.39341574 36.29858377 -8 28 C-8.67675781 27.75701172 -9.35351562 27.51402344 -10.05078125 27.26367188 C-43.66040948 15.25045445 -81.38916611 15.22242156 -116 22 C-117.17232178 22.21164795 -118.34464355 22.4232959 -119.55249023 22.64135742 C-128.56973129 24.32408445 -137.13495846 26.72913141 -145.8125 29.6875 C-146.46397003 29.90786926 -147.11544006 30.12823853 -147.78665161 30.35528564 C-158.48323926 33.98232607 -168.88174402 37.96245532 -179 43 C-179.88171875 43.43538086 -180.7634375 43.87076172 -181.671875 44.31933594 C-202.05022395 54.45979168 -220.77892403 66.39257978 -239 80 C-239.90854736 80.67675781 -239.90854736 80.67675781 -240.83544922 81.3671875 C-249.16173134 87.59597322 -257.12964254 94.21050496 -265 101 C-265.73992187 101.63808594 -266.47984375 102.27617188 -267.2421875 102.93359375 C-271.7239645 106.83039986 -276.12815734 110.81246184 -280.5390625 114.7890625 C-293.9220804 126.81253572 -293.9220804 126.81253572 -297.875 127.5 C-302.2394451 126.80168878 -303.85406918 125.07276963 -307 122 C-308.46217568 119.07564864 -308.39063836 117.25660891 -308 114 C-306.30164396 111.551759 -304.69371313 109.53659182 -302.6875 107.375 C-302.13698975 106.76019775 -301.58647949 106.14539551 -301.01928711 105.51196289 C-299.88824791 104.25317591 -298.75062123 103.00027634 -297.60644531 101.75341797 C-296.21790481 100.23784078 -294.85277163 98.70088003 -293.4921875 97.16015625 C-287.39103739 90.32333691 -280.9501943 83.81822615 -274.5 77.3125 C-273.63383057 76.43327881 -272.76766113 75.55405762 -271.87524414 74.64819336 C-265.89766121 68.66273408 -259.62890451 63.24928164 -253 58 C-252.26346191 57.40421143 -251.52692383 56.80842285 -250.76806641 56.19458008 C-181.44989961 0.15166531 -86.87862802 -29.49855277 0 0 Z " fill="#020202" transform="translate(744,468)"/>
<path d="M0 0 C3.76971083 2.70685119 5.71718487 5.58592433 6.625 10.125 C1.17654224 43.90543813 -21.83774035 81.20351933 -47 104 C-49.51171875 105.7421875 -49.51171875 105.7421875 -51.6875 106.875 C-52.41324219 107.26429688 -53.13898438 107.65359375 -53.88671875 108.0546875 C-59.93515161 110.76027114 -67.17150087 111.29431092 -73.47265625 109.1640625 C-81.12539854 105.25236919 -86.7247451 98.92956449 -90 91 C-90.5878125 89.6696875 -90.5878125 89.6696875 -91.1875 88.3125 C-94.909683 73.13744622 -88.88524266 58.87561151 -81.26025391 46.02636719 C-67.75584528 24.31257572 -47.14101863 7.9108978 -22 2 C-19.0889179 1.42994476 -16.17819892 0.90385608 -13.25 0.4296875 C-4.29475975 -1.28051463 -4.29475975 -1.28051463 0 0 Z " fill="#020202" transform="translate(463,356)"/>
<path d="M0 0 C3.16257347 1.18476242 5.82838172 2.87251458 8.625 4.75 C9.39279785 5.24371094 10.1605957 5.73742187 10.95166016 6.24609375 C23.54700484 14.46528724 35.19190822 23.54578844 46 34 C46.4945166 34.46873535 46.9890332 34.9374707 47.49853516 35.42041016 C60.85795283 48.09362981 78.54130092 65.57810832 79.5 84.875 C79.26896491 92.203433 77.14521109 97.83087096 71.9453125 103.0703125 C64.49332362 109.23302994 57.82119022 111.62784934 48.1484375 111.34765625 C31.42252782 109.50075059 16.66329396 98.09589512 6.1875 85.5 C4.77583696 83.6788275 3.37911934 81.84593923 2 80 C1.38511719 79.21109375 0.77023437 78.4221875 0.13671875 77.609375 C-8.8743807 65.54129502 -13.12083458 52.58157969 -16 38 C-16.1743457 37.22213135 -16.34869141 36.4442627 -16.52832031 35.64282227 C-17.44659534 30.49772538 -17.31187913 25.27570997 -17.375 20.0625 C-17.41238281 18.89525391 -17.44976563 17.72800781 -17.48828125 16.52539062 C-17.58678635 6.92114339 -17.58678635 6.92114339 -14.6015625 3.24609375 C-9.99347735 -0.73235815 -5.92607443 -0.71792124 0 0 Z " fill="#020202" transform="translate(824,340)"/>
<path d="M0 0 C13.04105448 11.27874982 14.74310221 29.87041264 16.12280273 46.08154297 C18.64422271 84.87311871 18.64422271 84.87311871 10.3125 96 C6.152899 100.24492615 2.93146541 102.15368392 -3 102.25 C-7.41679142 102.19233954 -10.30107093 102.07857188 -13.6875 99 C-24.98756997 83.68310828 -25.08609292 58.37342198 -25.6875 40 C-25.73632324 38.85337891 -25.73632324 38.85337891 -25.78613281 37.68359375 C-26.24149896 26.22124576 -26.62493673 13.96708543 -19.25 4.375 C-13.36929581 -1.07540876 -7.74071631 -2.88026653 0 0 Z " fill="#020202" transform="translate(748.6875,148)"/>
<path d="M0 0 C5.13093634 2.48271113 7.1559724 6.13733687 9.00390625 11.37890625 C17.59791201 38.00426055 19.20312377 79.1233389 8.00390625 105.37890625 C2.86861646 111.19304461 2.86861646 111.19304461 -1.38671875 111.6171875 C-7.46919103 111.77506588 -11.26605362 111.63594237 -15.99609375 107.37890625 C-19.94638919 102.88374247 -20.22642261 98.5092524 -20.5234375 92.734375 C-20.56476303 91.97916061 -20.60608856 91.22394623 -20.64866638 90.44584656 C-21.06712618 82.53127937 -21.34207171 74.61378317 -21.55859375 66.69140625 C-21.57910797 65.95020538 -21.59962219 65.20900452 -21.62075806 64.44534302 C-21.91558394 53.57010725 -22.12293837 42.6955281 -22.18359375 31.81640625 C-22.19656494 30.60573486 -22.20953613 29.39506348 -22.22290039 28.14770508 C-22.23263141 18.95318978 -22.23178735 9.68357589 -15.99609375 2.37890625 C-11.36770273 -1.58828605 -5.68075818 -1.76759403 0 0 Z " fill="#030303" transform="translate(546.99609375,149.62109375)"/>
<path d="M0 0 C1.21254308 3.63762924 0.39773054 4.82191442 -1.24731445 8.13916016 C-1.59882568 8.8151123 -1.95033691 9.49106445 -2.3125 10.1875 C-2.67496826 10.89438965 -3.03743652 11.6012793 -3.41088867 12.32958984 C-10.30038045 25.52434683 -18.43732214 37.60385076 -28 49 C-28.4547168 49.5465625 -28.90943359 50.093125 -29.37792969 50.65625 C-30.69374868 52.22355337 -32.02865642 53.7713847 -33.375 55.3125 C-34.14585937 56.19550781 -34.91671875 57.07851563 -35.7109375 57.98828125 C-38.21421318 60.18825902 -39.72382898 60.69322073 -43 61 C-45.89333844 56.65999235 -45.6645692 53.0950305 -45 48 C-38.95407358 27.70296132 -23.96232818 13.15739978 -6 3 C-4.00874269 1.98270245 -2.01139545 0.97687683 0 0 Z " fill="#F8F8F8" transform="translate(440,380)"/>
<path d="M0 0 C8.3399766 4.91347459 15.07239706 11.32868062 22 18 C22.55800293 18.53077148 23.11600586 19.06154297 23.69091797 19.60839844 C31.62981333 27.18045731 38.62947504 35.06471824 45 44 C45.58136719 44.80953125 46.16273438 45.6190625 46.76171875 46.453125 C50.09312547 51.38178152 50.09312547 51.38178152 49.67578125 54.15234375 C49 56 49 56 48 57 C37.47425346 57.11516134 30.80936153 52.33178123 23.37890625 45.34375 C11.61029863 33.74906269 3.61337302 20.19981695 0 4 C0 2.68 0 1.36 0 0 Z " fill="#FAFAFA" transform="translate(829,370)"/>
<path d="M0 0 C0 7.00767662 -10.30190822 14.38780509 -15.1875 19.3125 C-15.67379883 19.80355225 -16.16009766 20.29460449 -16.66113281 20.80053711 C-19.95352692 24.07790507 -23.3958051 27.06858815 -27 30 C-27.66 29.67 -28.32 29.34 -29 29 C-28.55197021 28.58226318 -28.10394043 28.16452637 -27.64233398 27.73413086 C-25.57285496 25.80320328 -23.50517147 23.87036294 -21.4375 21.9375 C-20.73302734 21.28072266 -20.02855469 20.62394531 -19.30273438 19.94726562 C-10.58570457 11.84126625 -10.58570457 11.84126625 -2.5625 3.0625 C-1.716875 2.051875 -0.87125 1.04125 0 0 Z " fill="#1A181C" transform="translate(332,720)"/>
<path d="M0 0 C0.33 0.66 0.66 1.32 1 2 C-2.16606087 6.84803071 -5.43362565 10.44377674 -9.86328125 14.15625 C-13.43598501 17.23909492 -16.70474271 20.62586687 -20 24 C-20.66 23.67 -21.32 23.34 -22 23 C-21.14277344 22.154375 -20.28554688 21.30875 -19.40234375 20.4375 C-11.08547563 12.19902478 -11.08547563 12.19902478 -3.26953125 3.48828125 C-2 2 -2 2 0 0 Z " fill="#171519" transform="translate(387,661)"/>
<path d="M0 0 C0.66 0.33 1.32 0.66 2 1 C-1.96 4.465 -1.96 4.465 -6 8 C-6.66 7.67 -7.32 7.34 -8 7 C-5.36 4.69 -2.72 2.38 0 0 Z " fill="#211F25" transform="translate(422,629)"/>
<path d="M0 0 C0.33 0.66 0.66 1.32 1 2 C-0.32 3.65 -1.64 5.3 -3 7 C-3.99 6.67 -4.98 6.34 -6 6 C-4.02 4.02 -2.04 2.04 0 0 Z " fill="#353235" transform="translate(387,661)"/>
</svg>
